<?xml version="1.0" encoding="utf-8"?>
<!-- Generator: Adobe Illustrator 23.0.1, SVG Export Plug-In . SVG Version: 6.00 Build 0)  -->
<svg version="1.1" id="Capa_1" xmlns="http://www.w3.org/2000/svg" xmlns:xlink="http://www.w3.org/1999/xlink" x="0px" y="0px"
	 viewBox="0 0 451.7 138.3" style="enable-background:new 0 0 451.7 138.3;" xml:space="preserve">
<style type="text/css">
	.st0{fill:#FFFFFF;}
</style>
<g>
	<g>
		<path class="st0" d="M147.7,54.9l-0.9-1.6l-20.8-36.1l-0.1-0.2C120.5,7.5,110.4,1,98.8,1H55.7C44,1,33.9,7.5,28.7,17l-0.1,0.1
			L7.4,53.9l-0.4,0.8C4.6,59,3.3,63.9,3.3,69.2c0,5.2,1.3,10.2,3.6,14.5l0.4,0.8l21.2,36.7l0.1,0.1c5.2,9.5,15.4,16,27,16h43.1
			c11.6,0,21.7-6.4,27-15.9l0.1-0.2l20.8-36.1l0.9-1.6c2.2-4.3,3.5-9.1,3.5-14.3C151.2,64,149.9,59.1,147.7,54.9z M83.2,74.3
			c0,1.1-0.6,1.6-1.6,1.6H66.7c-0.4,0-0.6,0.2-0.6,0.6v24.8c0,1.1-0.6,1.6-1.6,1.6H54.1c-1.1,0-1.6-0.6-1.6-1.6V36.9
			c0-1.1,0.6-1.6,1.6-1.6h10.3c1.1,0,1.6,0.6,1.6,1.6v24.8c0,0.4,0.2,0.6,0.6,0.6h14.9c1.1,0,1.6,0.6,1.6,1.6V74.3z M102.1,101.4
			c0,1.1-0.6,1.6-1.6,1.6H90.1c-1.1,0-1.6-0.6-1.6-1.6V48.6c0-0.4-0.3-0.7-0.7-0.6l-8.5,1.7c-1.1,0.2-1.8-0.4-1.8-1.5V41
			c0-0.9,0.4-1.5,1.3-1.8l8.8-3.5c0.7-0.3,1.3-0.4,2-0.4h10.9c1.1,0,1.6,0.6,1.6,1.6V101.4z"/>
	</g>
	<path class="st0" d="M437.8,44.3l-7.4,3.5c-0.4,0.2-0.6,0.5-0.6,1l0.2,6.1c0,0.5,0.2,0.8,0.6,0.8l0.3-0.1l7-1.9
		c0.1,0,0.2,0,0.3,0.1c0.1,0.1,0.1,0.2,0.1,0.3v38.8c0,0.2,0.1,0.4,0.2,0.6s0.4,0.2,0.6,0.2h8.3c0.2,0,0.4-0.1,0.6-0.2
		c0.2-0.2,0.2-0.4,0.2-0.6V44.9c0-0.2-0.1-0.4-0.2-0.6c-0.2-0.2-0.4-0.2-0.6-0.2h-8.6C438.4,44.1,438.1,44.2,437.8,44.3"/>
	<path class="st0" d="M393.4,85.9c-2.6,0-4.7-0.8-6.3-2.5c-1.6-1.7-2.4-3.9-2.4-6.6V61.2c0-2.7,0.8-5,2.4-6.6
		c1.6-1.7,3.7-2.5,6.3-2.5c2.6,0,4.8,0.8,6.3,2.5c1.6,1.7,2.4,3.9,2.4,6.6v15.6c0,2.7-0.8,4.9-2.4,6.6
		C398.1,85.1,396,85.9,393.4,85.9 M393.4,94.5c3.7,0,7-0.7,9.8-2.2c2.8-1.5,5-3.6,6.6-6.3c1.6-2.7,2.3-5.9,2.3-9.4V61.3
		c0-3.5-0.8-6.6-2.3-9.3c-1.6-2.7-3.7-4.8-6.6-6.3c-2.8-1.5-6.1-2.2-9.8-2.2c-3.7,0-6.9,0.7-9.7,2.2c-2.8,1.5-5,3.6-6.6,6.3
		c-1.6,2.7-2.3,5.8-2.3,9.3v15.2c0,3.5,0.8,6.7,2.3,9.4c1.6,2.7,3.7,4.8,6.6,6.3C386.5,93.7,389.8,94.5,393.4,94.5 M369.1,44.1
		h-35.7c-0.2,0-0.4,0.1-0.6,0.2c-0.2,0.2-0.2,0.4-0.2,0.6v6.9c0,0.2,0.1,0.4,0.2,0.6c0.2,0.2,0.4,0.2,0.6,0.2h12.3
		c0.2,0,0.4,0.1,0.4,0.4v39.8c0,0.2,0.1,0.4,0.2,0.6c0.2,0.2,0.4,0.2,0.6,0.2h8.3c0.2,0,0.4-0.1,0.6-0.2c0.2-0.2,0.2-0.4,0.2-0.6
		V53.1c0-0.2,0.1-0.4,0.4-0.4h12.7c0.2,0,0.4-0.1,0.6-0.2c0.2-0.2,0.2-0.4,0.2-0.6v-6.9c0-0.2-0.1-0.4-0.2-0.6
		C369.6,44.2,369.4,44.1,369.1,44.1 M315.7,93.7h8.3c0.2,0,0.4-0.1,0.6-0.2c0.2-0.2,0.2-0.4,0.2-0.6V44.9c0-0.2-0.1-0.4-0.2-0.6
		c-0.2-0.2-0.4-0.2-0.6-0.2h-8.3c-0.2,0-0.4,0.1-0.6,0.2c-0.2,0.2-0.2,0.4-0.2,0.6v47.9c0,0.2,0.1,0.4,0.2,0.6
		C315.2,93.6,315.4,93.7,315.7,93.7 M288.7,85.1h-8.9c-0.2,0-0.4-0.1-0.4-0.4V72.9c0-0.2,0.1-0.4,0.4-0.4h8.8c2.2,0,3.9,0.6,5.2,1.7
		c1.2,1.1,1.8,2.6,1.8,4.6c0,1.9-0.6,3.5-1.8,4.6C292.6,84.5,290.9,85.1,288.7,85.1 M279.8,52.7h8.3c2.2,0,3.9,0.5,5.2,1.6
		c1.2,1.1,1.8,2.5,1.8,4.4c0,1.8-0.6,3.2-1.8,4.3c-1.2,1-3,1.6-5.2,1.6h-8.3c-0.2,0-0.4-0.1-0.4-0.4V53
		C279.5,52.8,279.6,52.7,279.8,52.7 M298.9,67.8c4-2,6-5.4,6-10.1c0-9.1-5.6-13.6-16.8-13.6h-17.8c-0.2,0-0.4,0.1-0.6,0.2
		c-0.2,0.2-0.2,0.4-0.2,0.6v47.9c0,0.2,0.1,0.4,0.2,0.6c0.2,0.2,0.4,0.2,0.6,0.2h18.4c5.1,0,9.1-1.2,12.3-3.5
		c3.1-2.3,4.7-5.8,4.7-10.4c0-5.4-2.2-9.2-6.7-11.6C298.6,68.1,298.6,68,298.9,67.8 M200.7,44.9V64c0,0.2-0.1,0.4-0.4,0.4h-15.7
		c-0.2,0-0.4-0.1-0.4-0.4V44.9c0-0.2-0.1-0.4-0.2-0.6c-0.2-0.2-0.4-0.2-0.6-0.2h-8.3c-0.2,0-0.4,0.1-0.6,0.2
		c-0.2,0.2-0.2,0.4-0.2,0.6v47.9c0,0.2,0.1,0.4,0.2,0.6c0.2,0.2,0.4,0.2,0.6,0.2h8.3c0.2,0,0.4-0.1,0.6-0.2c0.2-0.2,0.2-0.4,0.2-0.6
		V73.3c0-0.2,0.1-0.4,0.4-0.4h15.7c0.2,0,0.4,0.1,0.4,0.4v19.6c0,0.2,0.1,0.4,0.2,0.6c0.2,0.2,0.4,0.2,0.6,0.2h8.3
		c0.2,0,0.4-0.1,0.6-0.2c0.2-0.2,0.2-0.4,0.2-0.6V44.9c0-0.2-0.1-0.4-0.2-0.6c-0.2-0.2-0.4-0.2-0.6-0.2h-8.3c-0.2,0-0.4,0.1-0.6,0.2
		C200.8,44.5,200.7,44.7,200.7,44.9"/>
	<path class="st0" d="M233.4,77.6l6.2-21c0-0.1,0.1-0.2,0.2-0.2c0.1,0,0.2,0.1,0.2,0.2l6.4,21c0.1,0.3,0,0.4-0.3,0.4h-12.5
		C233.4,78,233.3,77.9,233.4,77.6 M252,93.7h9c0.5,0,0.8-0.2,0.8-0.6c0-0.1,0-0.3-0.1-0.4l-15.3-47.9c-0.1-0.5-0.4-0.7-0.9-0.7
		h-11.1c-0.5,0-0.8,0.2-0.9,0.7l-15.3,47.9c-0.1,0.3-0.1,0.6,0.1,0.7c0.1,0.2,0.4,0.2,0.6,0.2h9c0.5,0,0.8-0.2,0.9-0.7l2.1-6.9
		c0.1-0.2,0.2-0.3,0.4-0.3h17.4c0.1,0,0.3,0.1,0.4,0.3l2.1,6.9C251.2,93.4,251.5,93.7,252,93.7"/>
</g>
</svg>
